# xmcd
#
# Track frame offsets: 
#        150
#        10769
#        22468
#        33944
#        45817
#        57537
#        67899
#        81326
#        91513
#        102585
#        114214
#        126004
#        135620
#        149123
#        159917
#        173288
#
# Disc length: 2453 seconds
#
# Revision: 0
# Processed by: cddbd v1.5.2PL0 Copyright (c) Steve Scherf et al.
# Submitted via: ExactAudioCopy v0.99pb4
#
DISCID=c7099310
DTITLE=Goldie Hill - Don't Send Me No More Roses
DYEAR=2009
DGENRE=Country
TTITLE0=Call Off The Wedding
TTITLE1=Don't Send No More Roses
TTITLE2=Waiting For A Letter
TTITLE3=I'm The Lonliest Gal In Town
TTITLE4=Fickle Heart
TTITLE5=Why Talk To My Heart
TTITLE6=I'm Yesterday's Girl
TTITLE7=Miss You So
TTITLE8=Let Me Be The One
TTITLE9=Please Don't Betray Me
TTITLE10=Cry Cry Darling
TTITLE11=Young At Heart
TTITLE12=Say Big Boy
TTITLE13=Treat Me Kind
TTITLE14=Liquor And Women
TTITLE15=Why Don't You Let Me Go
EXTD=
EXTT0=
EXTT1=
EXTT2=
EXTT3=
EXTT4=
EXTT5=
EXTT6=
EXTT7=
EXTT8=
EXTT9=
EXTT10=
EXTT11=
EXTT12=
EXTT13=
EXTT14=
EXTT15=
PLAYORDER=
